<?xml version="1.0" standalone="no"?><!DOCTYPE svg PUBLIC "-//W3C//DTD SVG 1.1//EN" "http://www.w3.org/Graphics/SVG/1.1/DTD/svg11.dtd"><svg class="icon" width="20px" height="20.00px" viewBox="0 0 1024 1024" version="1.1" xmlns="http://www.w3.org/2000/svg"><path d="M377.34 486.892c0 26.5-21.5 47.9-48 47.9-26.5 0-48-21.4-48-47.9 0-26.5 21.5-48 48-48C355.84 438.992 377.34 460.492 377.34 486.892zM927.34 475.692c0-199.8-186.6-362.4-416.1-362.4-229.4 0-416.1 162.6-416.1 362.4 0 118.7 66.9 229.9 179 297.6l0 114.2c0 8.1 4.5 15.6 11.6 19.3 3.3 1.8 6.7 2.7 10.4 2.7 4.3 0 8.5-1.2 12.2-3.7l52.7-34.8c1-0.6 2-1.4 2.5-1.9l59.6-39.7c29.7 5.6 59.3 8.5 88.1 8.5C740.74 837.992 927.34 675.492 927.34 475.692L927.34 475.692zM307.04 741.492c-105.2-59.3-167.9-158.6-167.9-265.9 0-175.5 166.9-318.3 372.1-318.3 205.1 0 372.1 142.8 372.1 318.3S716.34 793.992 511.24 793.992c-28.7 0-58.4-3.1-88.3-9.4-5.7-1.3-11.7-0.1-16.7 3.2l-69.8 46.5c-1 0.5-2.4 1.7-2.4 1.7l-15.9 10.5 0-85.9C318.24 752.692 313.94 745.492 307.04 741.492L307.04 741.492zM567.24 488.792c0 26.5-21.5 48.1-48.1 48.1-26.5 0-48-21.6-48-48.1s21.5-47.9 48-47.9C545.74 440.892 567.24 462.392 567.24 488.792zM754.94 488.792c0 26.5-21.5 48.1-48 48.1s-48-21.6-48-48.1 21.5-47.9 48-47.9C733.44 440.892 754.94 462.392 754.94 488.792z" fill="#ffffff" /></svg>