<?xml version="1.0" standalone="no"?><!DOCTYPE svg PUBLIC "-//W3C//DTD SVG 1.1//EN" "http://www.w3.org/Graphics/SVG/1.1/DTD/svg11.dtd"><svg class="icon" width="20px" height="20.00px" viewBox="0 0 1024 1024" version="1.1" xmlns="http://www.w3.org/2000/svg"><path d="M774.964742 16.463583 249.02417 16.463583c-44.527174 0-80.755524 33.859562-80.755524 77.755731l0 849.034234c0 43.896169 36.22331 79.604393 80.755524 79.604393l525.940572 0c44.531206 0 80.766612-35.708225 80.766612-79.604393l0-849.034234C855.731354 50.322137 819.495947 16.463583 774.964742 16.463583L774.964742 16.463583zM812.964139 943.253548c0 19.650864-16.22368 35.643713-36.167871 35.643713L245.3591 978.897261c-19.94419 0-36.161823-15.99285-36.161823-35.643713L209.197278 784.907605l603.766862 0L812.964139 943.253548 812.964139 943.253548zM812.964139 740.950957 209.197278 740.950957 209.197278 94.218306c0-19.655904 16.21864-35.647745 36.161823-35.647745l531.437169 0c19.943182 0 36.167871 15.991842 36.167871 35.647745L812.964139 740.950957 812.964139 740.950957zM610.347053 119.682277 428.82428 119.682277c-12.315684 0-22.301891 9.841056-22.301891 21.98034 0 12.140292 9.986207 21.981348 22.301891 21.981348l181.522773 0c12.315684 0 22.301891-9.841056 22.301891-21.981348C632.648944 129.523333 622.662737 119.682277 610.347053 119.682277L610.347053 119.682277zM547.968288 845.641323l-57.916372 0 0 57.081752 57.916372 0L547.968288 845.641323 547.968288 845.641323zM547.968288 845.641323" fill="#515151" /></svg>