<?xml version="1.0" standalone="no"?><!DOCTYPE svg PUBLIC "-//W3C//DTD SVG 1.1//EN" "http://www.w3.org/Graphics/SVG/1.1/DTD/svg11.dtd"><svg class="icon" width="128px" height="128.00px" viewBox="0 0 1024 1024" version="1.1" xmlns="http://www.w3.org/2000/svg"><path d="M785.243221 314.88155c-60.540841-107.271142-173.333744-173.479053-297.248961-173.479053-82.487689 0-162.070212 29.870308-224.208435 84.087117-56.396451 49.203632-94.915743 115.338888-109.886713 188.015118C65.2327 439.086363 2.876514 520.556886 2.876514 614.456487c0 104.07331 77.329203 191.430914 177.549765 206.76618v2.472308h585.847915c140.558269 0 254.804267-114.249067 254.804267-254.806314 0.072655-134.090974-104.217596-244.269329-235.83524-254.007111z m-18.896372 450.379571H212.041324l-1.963725-0.146333c-81.979106-1.016143-148.696624-68.461231-148.696623-150.585647 0-72.749908 51.819203-135.034463 123.259278-148.18804l20.640086-3.850701 3.051499-20.787443c9.593496-66.571185 42.953278-127.692241 93.8996-172.243922 51.453882-44.913932 117.373221-69.623707 185.760774-69.623707 92.736101 0 177.913039 44.768623 230.530421 118.89897-62.138222 12.06478-118.535697 46.876634-156.836002 98.404194-9.66615 12.936637-6.976902 31.251771 6.105045 40.915875 12.93459 9.593496 31.251771 6.904247 40.915875-6.031367 37.501102-50.437739 94.990444-79.43619 157.636227-79.43619 108.215654 0 196.299805 88.010473 196.299805 196.299805s-88.080058 196.374506-196.296735 196.374506z" fill="#0099ff" /></svg>